name rise49.5252peak65.1548fall88.8305.mot
datacolumns 19
datarows 21
range 22.54324000000000 22.57657100000000
endheader
time	ground_force1_vx	ground_force1_vy	ground_force1_vz	ground_force1_px	ground_force1_py	ground_force1_pz	ground_force2_vx	ground_force2_vy	ground_force2_vz	ground_force2_px	ground_force2_py	ground_force2_pz	ground_torque1_x	ground_torque1_y	ground_torque1_z	ground_torque2_x	ground_torque2_y	ground_torque2_z	
22.54324000000000	59.18674400000000	765.33943399999998	56.43510300000000	0.37825000000000	0.00000000000000	0.11777500000000	0.00000000000000	0.00000000000000	0.00000000000000	0.00000000000000	0.00000000000000	0.00000000000000	0.00000000000000	27.57647500000000	0.00000000000000	0.00000000000000	0.00000000000000	0.00000000000000	
22.54491100000000	58.52470100000000	768.41543100000001	56.56818100000000	0.37709600000000	0.00000000000000	0.11783900000000	0.00000000000000	0.00000000000000	0.00000000000000	0.00000000000000	0.00000000000000	0.00000000000000	0.00000000000000	27.65684200000000	0.00000000000000	0.00000000000000	0.00000000000000	0.00000000000000	
22.54657200000000	57.86188300000000	771.36588900000004	56.69825700000000	0.37597100000000	0.00000000000000	0.11790100000000	0.00000000000000	0.00000000000000	0.00000000000000	0.00000000000000	0.00000000000000	0.00000000000000	0.00000000000000	27.73757100000000	0.00000000000000	0.00000000000000	0.00000000000000	0.00000000000000	
22.54824400000000	57.19888800000000	774.18796799999996	56.82481800000000	0.37487500000000	0.00000000000000	0.11796300000000	0.00000000000000	0.00000000000000	0.00000000000000	0.00000000000000	0.00000000000000	0.00000000000000	0.00000000000000	27.81827300000000	0.00000000000000	0.00000000000000	0.00000000000000	0.00000000000000	
22.54991000000000	56.53625100000000	776.87895300000002	56.94729800000000	0.37380900000000	0.00000000000000	0.11802300000000	0.00000000000000	0.00000000000000	0.00000000000000	0.00000000000000	0.00000000000000	0.00000000000000	0.00000000000000	27.89852600000000	0.00000000000000	0.00000000000000	0.00000000000000	0.00000000000000	
22.55157900000000	55.87444700000000	779.43627000000004	57.06508400000000	0.37277100000000	0.00000000000000	0.11808100000000	0.00000000000000	0.00000000000000	0.00000000000000	0.00000000000000	0.00000000000000	0.00000000000000	0.00000000000000	27.97787100000000	0.00000000000000	0.00000000000000	0.00000000000000	0.00000000000000	
22.55324100000000	55.21388800000000	781.85750299999995	57.17752500000000	0.37176000000000	0.00000000000000	0.11813800000000	0.00000000000000	0.00000000000000	0.00000000000000	0.00000000000000	0.00000000000000	0.00000000000000	0.00000000000000	28.05582500000000	0.00000000000000	0.00000000000000	0.00000000000000	0.00000000000000	
22.55490600000000	54.55493100000000	784.14040999999997	57.28393700000000	0.37077700000000	0.00000000000000	0.11819400000000	0.00000000000000	0.00000000000000	0.00000000000000	0.00000000000000	0.00000000000000	0.00000000000000	0.00000000000000	28.13187800000000	0.00000000000000	0.00000000000000	0.00000000000000	0.00000000000000	
22.55657200000000	53.89787500000000	786.28293299999996	57.38360900000000	0.36981900000000	0.00000000000000	0.11824800000000	0.00000000000000	0.00000000000000	0.00000000000000	0.00000000000000	0.00000000000000	0.00000000000000	0.00000000000000	28.20550300000000	0.00000000000000	0.00000000000000	0.00000000000000	0.00000000000000	
22.55823900000000	53.24296700000000	788.28321600000004	57.47581100000000	0.36888700000000	0.00000000000000	0.11830000000000	0.00000000000000	0.00000000000000	0.00000000000000	0.00000000000000	0.00000000000000	0.00000000000000	0.00000000000000	28.27615600000000	0.00000000000000	0.00000000000000	0.00000000000000	0.00000000000000	
22.55990800000000	52.59040600000000	790.13961500000005	57.55980200000000	0.36797800000000	0.00000000000000	0.11835100000000	0.00000000000000	0.00000000000000	0.00000000000000	0.00000000000000	0.00000000000000	0.00000000000000	0.00000000000000	28.34328700000000	0.00000000000000	0.00000000000000	0.00000000000000	0.00000000000000	
22.56158000000000	51.94034000000000	791.85070900000005	57.63483300000000	0.36709200000000	0.00000000000000	0.11839900000000	0.00000000000000	0.00000000000000	0.00000000000000	0.00000000000000	0.00000000000000	0.00000000000000	0.00000000000000	28.40633900000000	0.00000000000000	0.00000000000000	0.00000000000000	0.00000000000000	
22.56324500000000	51.29287700000000	793.41531299999997	57.70015900000000	0.36622700000000	0.00000000000000	0.11844600000000	0.00000000000000	0.00000000000000	0.00000000000000	0.00000000000000	0.00000000000000	0.00000000000000	0.00000000000000	28.46475200000000	0.00000000000000	0.00000000000000	0.00000000000000	0.00000000000000	
22.56491000000000	50.64808100000000	794.83248600000002	57.75504000000000	0.36538200000000	0.00000000000000	0.11849200000000	0.00000000000000	0.00000000000000	0.00000000000000	0.00000000000000	0.00000000000000	0.00000000000000	0.00000000000000	28.51797500000000	0.00000000000000	0.00000000000000	0.00000000000000	0.00000000000000	
22.56657300000000	50.00598000000000	796.10153700000001	57.79875200000000	0.36455500000000	0.00000000000000	0.11853500000000	0.00000000000000	0.00000000000000	0.00000000000000	0.00000000000000	0.00000000000000	0.00000000000000	0.00000000000000	28.56546000000000	0.00000000000000	0.00000000000000	0.00000000000000	0.00000000000000	
22.56824600000000	49.36656400000000	797.22203600000000	57.83059200000000	0.36374600000000	0.00000000000000	0.11857700000000	0.00000000000000	0.00000000000000	0.00000000000000	0.00000000000000	0.00000000000000	0.00000000000000	0.00000000000000	28.60667600000000	0.00000000000000	0.00000000000000	0.00000000000000	0.00000000000000	
22.56991000000000	48.72979700000000	798.19381799999996	57.84988200000000	0.36295100000000	0.00000000000000	0.11861600000000	0.00000000000000	0.00000000000000	0.00000000000000	0.00000000000000	0.00000000000000	0.00000000000000	0.00000000000000	28.64110700000000	0.00000000000000	0.00000000000000	0.00000000000000	0.00000000000000	
22.57157200000000	48.09561000000000	799.01698499999998	57.85597800000000	0.36217000000000	0.00000000000000	0.11865400000000	0.00000000000000	0.00000000000000	0.00000000000000	0.00000000000000	0.00000000000000	0.00000000000000	0.00000000000000	28.66825600000000	0.00000000000000	0.00000000000000	0.00000000000000	0.00000000000000	
22.57324700000000	47.46391200000000	799.69191499999999	57.84827200000000	0.36140100000000	0.00000000000000	0.11868900000000	0.00000000000000	0.00000000000000	0.00000000000000	0.00000000000000	0.00000000000000	0.00000000000000	0.00000000000000	28.68765300000000	0.00000000000000	0.00000000000000	0.00000000000000	0.00000000000000	
22.57490800000000	46.83459100000000	800.21925999999996	57.82620100000000	0.36064300000000	0.00000000000000	0.11872300000000	0.00000000000000	0.00000000000000	0.00000000000000	0.00000000000000	0.00000000000000	0.00000000000000	0.00000000000000	28.69885400000000	0.00000000000000	0.00000000000000	0.00000000000000	0.00000000000000	
22.57657100000000	46.20751500000000	800.59994900000004	57.78924800000000	0.35989200000000	0.00000000000000	0.11875400000000	0.00000000000000	0.00000000000000	0.00000000000000	0.00000000000000	0.00000000000000	0.00000000000000	0.00000000000000	28.70144600000000	0.00000000000000	0.00000000000000	0.00000000000000	0.00000000000000	
